<svg width="373" height="305" viewBox="0 0 373 305" fill="none" xmlns="http://www.w3.org/2000/svg">
<path d="M87.8712 133.047L99.1949 133.024L102.263 122.169L102.264 122.166L102.277 122.122C102.299 122.049 102.342 121.908 102.407 121.703C102.537 121.292 102.755 120.626 103.068 119.742C103.697 117.97 104.702 115.34 106.145 112.139C109.047 105.699 113.623 97.1562 120.29 88.678C133.427 71.9699 154.307 55.8114 187.333 55.6477C223.688 57.1168 252.616 74.4588 268.37 111.143L271.766 119.051L280.308 120.11C306.959 123.412 323.144 133.796 332.386 145.896C341.762 158.171 345.244 173.842 343.383 189.823C339.514 223.051 314.393 250.603 283.291 249.409L282.988 249.397L282.685 249.398L93.8458 249.782L93.6126 249.782L93.3795 249.79C70.2029 250.558 54.6133 243.129 44.7484 232.948C34.6551 222.531 29.3645 207.997 29.309 192.77C29.1975 162.19 49.5441 133.125 87.8712 133.047Z" fill="white" stroke="white" stroke-width="30"/>
</svg>
