<svg width="2002" height="396" viewBox="0 0 2002 396" fill="none" xmlns="http://www.w3.org/2000/svg">
<path d="M0 277.2V80.4H61.5C74.9 80.4 86.8 82.2 97.2 85.8C107.6 89.2 115.7 95 121.5 103.2C127.5 111.2 130.5 122 130.5 135.6C130.5 148.8 127.5 159.7 121.5 168.3C115.7 176.9 107.6 183.4 97.2 187.8C86.8 192 74.9 194.1 61.5 194.1H24.9V277.2H0ZM24.9 173.7H57.9C73.3 173.7 85.1 170.6 93.3 164.4C101.5 158 105.6 148.4 105.6 135.6C105.6 122.8 101.5 113.8 93.3 108.6C85.1 103.2 73.3 100.5 57.9 100.5H24.9V173.7ZM108 277.2L56.7 187.2L76.2 174L136.2 277.2H108Z" fill="white"/>
<path d="M224.571 280.8C211.571 280.8 199.671 277.8 188.871 271.8C178.271 265.6 169.871 256.9 163.671 245.7C157.471 234.3 154.371 220.5 154.371 204.3C154.371 188.5 157.571 174.9 163.971 163.5C170.371 152.1 178.571 143.3 188.571 137.1C198.571 130.9 209.171 127.8 220.371 127.8C232.771 127.8 243.271 130.7 251.871 136.5C260.671 142.1 267.271 150 271.671 160.2C276.071 170.4 278.271 182.4 278.271 196.2C278.271 198.8 278.171 201.3 277.971 203.7C277.971 206.1 277.671 208.5 277.071 210.9H172.071V191.4H256.071C256.071 177.4 252.971 166.7 246.771 159.3C240.771 151.7 232.071 147.9 220.671 147.9C214.071 147.9 207.571 149.8 201.171 153.6C194.771 157.2 189.471 163.1 185.271 171.3C181.271 179.5 179.271 190.4 179.271 204C179.271 216.4 181.371 226.8 185.571 235.2C189.971 243.6 195.871 250 203.271 254.4C210.671 258.6 218.771 260.7 227.571 260.7C234.571 260.7 241.071 259.7 247.071 257.7C253.271 255.7 258.871 253 263.871 249.6L272.871 265.8C266.471 270.2 259.271 273.8 251.271 276.6C243.471 279.4 234.571 280.8 224.571 280.8Z" fill="white"/>
<path d="M314.299 338.7V131.4H334.699L336.799 148.2H337.699C344.299 142.6 351.599 137.8 359.599 133.8C367.599 129.8 375.799 127.8 384.199 127.8C396.599 127.8 407.099 130.9 415.699 137.1C424.299 143.1 430.799 151.7 435.199 162.9C439.599 173.9 441.799 187 441.799 202.2C441.799 218.6 438.799 232.7 432.799 244.5C426.999 256.3 419.299 265.3 409.699 271.5C400.099 277.7 389.799 280.8 378.799 280.8C372.199 280.8 365.499 279.3 358.699 276.3C351.899 273.3 345.099 269.2 338.299 264L338.899 289.5V338.7H314.299ZM374.599 260.1C382.599 260.1 389.699 257.8 395.899 253.2C402.299 248.6 407.299 242 410.899 233.4C414.499 224.6 416.299 214.2 416.299 202.2C416.299 191.6 414.999 182.3 412.399 174.3C409.799 166.1 405.699 159.8 400.099 155.4C394.499 150.8 387.099 148.5 377.899 148.5C371.899 148.5 365.699 150.2 359.299 153.6C352.899 156.8 346.099 161.7 338.899 168.3V244.8C345.699 250.4 352.099 254.4 358.099 256.8C364.299 259 369.799 260.1 374.599 260.1Z" fill="white"/>
<path d="M480.705 277.2V131.4H501.105L503.205 157.8H504.105C508.905 148.6 514.905 141.3 522.105 135.9C529.305 130.5 537.105 127.8 545.505 127.8C548.705 127.8 551.505 128 553.905 128.4C556.305 128.8 558.705 129.6 561.105 130.8L555.705 151.8C553.505 151.2 551.405 150.8 549.405 150.6C547.605 150.2 545.205 150 542.205 150C536.005 150 529.505 152.5 522.705 157.5C516.105 162.5 510.305 171.2 505.305 183.6V277.2H480.705Z" fill="white"/>
<path d="M638.48 280.8C626.68 280.8 615.58 277.8 605.18 271.8C594.98 265.8 586.68 257.1 580.28 245.7C574.08 234.3 570.98 220.6 570.98 204.6C570.98 188.2 574.08 174.3 580.28 162.9C586.68 151.5 594.98 142.8 605.18 136.8C615.58 130.8 626.68 127.8 638.48 127.8C650.48 127.8 661.58 130.8 671.78 136.8C681.98 142.8 690.18 151.5 696.38 162.9C702.78 174.3 705.98 188.2 705.98 204.6C705.98 220.6 702.78 234.3 696.38 245.7C690.18 257.1 681.98 265.8 671.78 271.8C661.58 277.8 650.48 280.8 638.48 280.8ZM638.48 260.4C646.88 260.4 654.28 258.1 660.68 253.5C667.08 248.7 671.98 242.1 675.38 233.7C678.78 225.3 680.48 215.6 680.48 204.6C680.48 193.4 678.78 183.6 675.38 175.2C671.98 166.6 667.08 160 660.68 155.4C654.28 150.6 646.88 148.2 638.48 148.2C630.08 148.2 622.68 150.6 616.28 155.4C610.08 160 605.18 166.6 601.58 175.2C598.18 183.6 596.48 193.4 596.48 204.6C596.48 215.6 598.18 225.3 601.58 233.7C605.18 242.1 610.08 248.7 616.28 253.5C622.68 258.1 630.08 260.4 638.48 260.4Z" fill="white"/>
<path d="M802.577 280.8C789.577 280.8 776.777 278.5 764.177 273.9C751.577 269.1 740.277 261.9 730.277 252.3L753.677 223.5C760.677 229.5 768.577 234.2 777.377 237.6C786.377 241 795.177 242.7 803.777 242.7C812.977 242.7 819.777 241 824.177 237.6C828.777 234.2 831.077 229.6 831.077 223.8C831.077 219.6 829.877 216.3 827.477 213.9C825.277 211.3 822.077 209 817.877 207C813.677 205 808.677 202.8 802.877 200.4L777.377 189.9C770.777 186.9 764.377 183.1 758.177 178.5C752.177 173.7 747.277 167.9 743.477 161.1C739.877 154.1 738.077 145.8 738.077 136.2C738.077 125.4 740.977 115.7 746.777 107.1C752.777 98.3 760.977 91.3 771.377 86.1C781.977 80.7 794.077 78 807.677 78C819.477 78 830.877 80.1 841.877 84.3C852.877 88.5 862.477 94.6 870.677 102.6L847.277 131.1C840.877 126.3 834.277 122.6 827.477 120C820.877 117.4 814.277 116.1 807.677 116.1C800.077 116.1 793.977 117.7 789.377 120.9C784.977 123.9 782.777 128.2 782.777 133.8C782.777 137.6 784.077 140.9 786.677 143.7C789.277 146.3 792.877 148.6 797.477 150.6C802.077 152.4 807.077 154.5 812.477 156.9L837.677 167.1C845.677 170.3 852.477 174.3 858.077 179.1C863.877 183.9 868.377 189.7 871.577 196.5C874.777 203.1 876.377 211 876.377 220.2C876.377 231 873.477 241 867.677 250.2C861.877 259.4 853.477 266.8 842.477 272.4C831.477 278 818.177 280.8 802.577 280.8Z" fill="white"/>
<path d="M909.577 277.2V81.6H955.777L1005.88 177.9C1009.48 184.5 1012.78 191.6 1015.78 199.2C1018.98 206.6 1022.08 214.2 1025.08 222H1026.28C1025.28 211.4 1024.08 199.8 1022.68 187.2C1021.28 174.6 1020.58 162.5 1020.58 150.9V81.6H1062.88V277.2H1016.68L966.577 180.9C963.177 174.3 959.777 167.2 956.377 159.6C953.177 152 950.077 144.4 947.077 136.8H945.877C947.077 147.6 948.377 159.3 949.777 171.9C951.177 184.3 951.877 196.3 951.877 207.9V277.2H909.577Z" fill="white"/>
<path d="M1109.09 277.2V81.6H1176.29C1190.69 81.6 1203.69 83.6 1215.29 87.6C1227.09 91.4 1236.49 97.9 1243.49 107.1C1250.49 116.3 1253.99 128.8 1253.99 144.6C1253.99 159.8 1250.49 172.3 1243.49 182.1C1236.49 191.9 1227.19 199.2 1215.59 204C1203.99 208.6 1191.29 210.9 1177.49 210.9H1153.19V277.2H1109.09ZM1153.19 175.8H1174.79C1186.99 175.8 1195.99 173.1 1201.79 167.7C1207.79 162.3 1210.79 154.6 1210.79 144.6C1210.79 134.2 1207.59 127 1201.19 123C1194.79 118.8 1185.59 116.7 1173.59 116.7H1153.19V175.8Z" fill="white"/>
<path d="M0 277.2V80.4H61.5C74.9 80.4 86.8 82.2 97.2 85.8C107.6 89.2 115.7 95 121.5 103.2C127.5 111.2 130.5 122 130.5 135.6C130.5 148.8 127.5 159.7 121.5 168.3C115.7 176.9 107.6 183.4 97.2 187.8C86.8 192 74.9 194.1 61.5 194.1H24.9V277.2H0ZM24.9 173.7H57.9C73.3 173.7 85.1 170.6 93.3 164.4C101.5 158 105.6 148.4 105.6 135.6C105.6 122.8 101.5 113.8 93.3 108.6C85.1 103.2 73.3 100.5 57.9 100.5H24.9V173.7ZM108 277.2L56.7 187.2L76.2 174L136.2 277.2H108Z" stroke="black"/>
<path d="M224.571 280.8C211.571 280.8 199.671 277.8 188.871 271.8C178.271 265.6 169.871 256.9 163.671 245.7C157.471 234.3 154.371 220.5 154.371 204.3C154.371 188.5 157.571 174.9 163.971 163.5C170.371 152.1 178.571 143.3 188.571 137.1C198.571 130.9 209.171 127.8 220.371 127.8C232.771 127.8 243.271 130.7 251.871 136.5C260.671 142.1 267.271 150 271.671 160.2C276.071 170.4 278.271 182.4 278.271 196.2C278.271 198.8 278.171 201.3 277.971 203.7C277.971 206.1 277.671 208.5 277.071 210.9H172.071V191.4H256.071C256.071 177.4 252.971 166.7 246.771 159.3C240.771 151.7 232.071 147.9 220.671 147.9C214.071 147.9 207.571 149.8 201.171 153.6C194.771 157.2 189.471 163.1 185.271 171.3C181.271 179.5 179.271 190.4 179.271 204C179.271 216.4 181.371 226.8 185.571 235.2C189.971 243.6 195.871 250 203.271 254.4C210.671 258.6 218.771 260.7 227.571 260.7C234.571 260.7 241.071 259.7 247.071 257.7C253.271 255.7 258.871 253 263.871 249.6L272.871 265.8C266.471 270.2 259.271 273.8 251.271 276.6C243.471 279.4 234.571 280.8 224.571 280.8Z" stroke="black"/>
<path d="M314.299 338.7V131.4H334.699L336.799 148.2H337.699C344.299 142.6 351.599 137.8 359.599 133.8C367.599 129.8 375.799 127.8 384.199 127.8C396.599 127.8 407.099 130.9 415.699 137.1C424.299 143.1 430.799 151.7 435.199 162.9C439.599 173.9 441.799 187 441.799 202.2C441.799 218.6 438.799 232.7 432.799 244.5C426.999 256.3 419.299 265.3 409.699 271.5C400.099 277.7 389.799 280.8 378.799 280.8C372.199 280.8 365.499 279.3 358.699 276.3C351.899 273.3 345.099 269.2 338.299 264L338.899 289.5V338.7H314.299ZM374.599 260.1C382.599 260.1 389.699 257.8 395.899 253.2C402.299 248.6 407.299 242 410.899 233.4C414.499 224.6 416.299 214.2 416.299 202.2C416.299 191.6 414.999 182.3 412.399 174.3C409.799 166.1 405.699 159.8 400.099 155.4C394.499 150.8 387.099 148.5 377.899 148.5C371.899 148.5 365.699 150.2 359.299 153.6C352.899 156.8 346.099 161.7 338.899 168.3V244.8C345.699 250.4 352.099 254.4 358.099 256.8C364.299 259 369.799 260.1 374.599 260.1Z" stroke="black"/>
<path d="M480.705 277.2V131.4H501.105L503.205 157.8H504.105C508.905 148.6 514.905 141.3 522.105 135.9C529.305 130.5 537.105 127.8 545.505 127.8C548.705 127.8 551.505 128 553.905 128.4C556.305 128.8 558.705 129.6 561.105 130.8L555.705 151.8C553.505 151.2 551.405 150.8 549.405 150.6C547.605 150.2 545.205 150 542.205 150C536.005 150 529.505 152.5 522.705 157.5C516.105 162.5 510.305 171.2 505.305 183.6V277.2H480.705Z" stroke="black"/>
<path d="M638.48 280.8C626.68 280.8 615.58 277.8 605.18 271.8C594.98 265.8 586.68 257.1 580.28 245.7C574.08 234.3 570.98 220.6 570.98 204.6C570.98 188.2 574.08 174.3 580.28 162.9C586.68 151.5 594.98 142.8 605.18 136.8C615.58 130.8 626.68 127.8 638.48 127.8C650.48 127.8 661.58 130.8 671.78 136.8C681.98 142.8 690.18 151.5 696.38 162.9C702.78 174.3 705.98 188.2 705.98 204.6C705.98 220.6 702.78 234.3 696.38 245.7C690.18 257.1 681.98 265.8 671.78 271.8C661.58 277.8 650.48 280.8 638.48 280.8ZM638.48 260.4C646.88 260.4 654.28 258.1 660.68 253.5C667.08 248.7 671.98 242.1 675.38 233.7C678.78 225.3 680.48 215.6 680.48 204.6C680.48 193.4 678.78 183.6 675.38 175.2C671.98 166.6 667.08 160 660.68 155.4C654.28 150.6 646.88 148.2 638.48 148.2C630.08 148.2 622.68 150.6 616.28 155.4C610.08 160 605.18 166.6 601.58 175.2C598.18 183.6 596.48 193.4 596.48 204.6C596.48 215.6 598.18 225.3 601.58 233.7C605.18 242.1 610.08 248.7 616.28 253.5C622.68 258.1 630.08 260.4 638.48 260.4Z" stroke="black"/>
<path d="M802.577 280.8C789.577 280.8 776.777 278.5 764.177 273.9C751.577 269.1 740.277 261.9 730.277 252.3L753.677 223.5C760.677 229.5 768.577 234.2 777.377 237.6C786.377 241 795.177 242.7 803.777 242.7C812.977 242.7 819.777 241 824.177 237.6C828.777 234.2 831.077 229.6 831.077 223.8C831.077 219.6 829.877 216.3 827.477 213.9C825.277 211.3 822.077 209 817.877 207C813.677 205 808.677 202.8 802.877 200.4L777.377 189.9C770.777 186.9 764.377 183.1 758.177 178.5C752.177 173.7 747.277 167.9 743.477 161.1C739.877 154.1 738.077 145.8 738.077 136.2C738.077 125.4 740.977 115.7 746.777 107.1C752.777 98.3 760.977 91.3 771.377 86.1C781.977 80.7 794.077 78 807.677 78C819.477 78 830.877 80.1 841.877 84.3C852.877 88.5 862.477 94.6 870.677 102.6L847.277 131.1C840.877 126.3 834.277 122.6 827.477 120C820.877 117.4 814.277 116.1 807.677 116.1C800.077 116.1 793.977 117.7 789.377 120.9C784.977 123.9 782.777 128.2 782.777 133.8C782.777 137.6 784.077 140.9 786.677 143.7C789.277 146.3 792.877 148.6 797.477 150.6C802.077 152.4 807.077 154.5 812.477 156.9L837.677 167.1C845.677 170.3 852.477 174.3 858.077 179.1C863.877 183.9 868.377 189.7 871.577 196.5C874.777 203.1 876.377 211 876.377 220.2C876.377 231 873.477 241 867.677 250.2C861.877 259.4 853.477 266.8 842.477 272.4C831.477 278 818.177 280.8 802.577 280.8Z" stroke="black"/>
<path d="M909.577 277.2V81.6H955.777L1005.88 177.9C1009.48 184.5 1012.78 191.6 1015.78 199.2C1018.98 206.6 1022.08 214.2 1025.08 222H1026.28C1025.28 211.4 1024.08 199.8 1022.68 187.2C1021.28 174.6 1020.58 162.5 1020.58 150.9V81.6H1062.88V277.2H1016.68L966.577 180.9C963.177 174.3 959.777 167.2 956.377 159.6C953.177 152 950.077 144.4 947.077 136.8H945.877C947.077 147.6 948.377 159.3 949.777 171.9C951.177 184.3 951.877 196.3 951.877 207.9V277.2H909.577Z" stroke="black"/>
<path d="M1109.09 277.2V81.6H1176.29C1190.69 81.6 1203.69 83.6 1215.29 87.6C1227.09 91.4 1236.49 97.9 1243.49 107.1C1250.49 116.3 1253.99 128.8 1253.99 144.6C1253.99 159.8 1250.49 172.3 1243.49 182.1C1236.49 191.9 1227.19 199.2 1215.59 204C1203.99 208.6 1191.29 210.9 1177.49 210.9H1153.19V277.2H1109.09ZM1153.19 175.8H1174.79C1186.99 175.8 1195.99 173.1 1201.79 167.7C1207.79 162.3 1210.79 154.6 1210.79 144.6C1210.79 134.2 1207.59 127 1201.19 123C1194.79 118.8 1185.59 116.7 1173.59 116.7H1153.19V175.8Z" stroke="black"/>
<path fill-rule="evenodd" clip-rule="evenodd" d="M1183.19 275.504C1189.21 282.39 1195.11 288.324 1200.92 293.323C1218.68 308.596 1236.56 315.907 1255.25 313.732C1263.3 312.796 1271.04 310.145 1278.54 306.133L1281.11 304.705C1289.66 299.749 1297.93 293.054 1306.03 285.156C1309.15 282.121 1312.28 278.864 1315.44 275.398C1321.24 281.966 1326.9 287.75 1332.44 292.745C1350.3 308.842 1368.23 317.841 1386.99 316.938C1405.7 316.038 1422.38 305.426 1438.06 288.984C1453.77 272.508 1469.67 248.937 1486.83 219.454L1486.64 219.343C1494.85 206.137 1502.57 194.733 1509.86 184.985C1517.09 195.516 1524.67 207.685 1532.71 221.502L1532.79 221.637L1532.87 221.77C1544.11 239.871 1554.76 255.206 1565 267.857V268.155C1573.2 278.25 1581.14 286.625 1588.92 293.323C1604.63 306.837 1620.44 314.117 1636.82 314.108C1639.03 314.117 1641.26 313.992 1643.49 313.733C1651.54 312.796 1659.28 310.145 1666.78 306.133L1669.35 304.705C1677.91 299.749 1686.17 293.054 1694.27 285.157C1697.35 282.161 1700.44 278.948 1703.56 275.532C1709.32 282.045 1714.93 287.784 1720.44 292.745C1737.5 308.12 1754.62 317.019 1772.47 317C1773.39 317.003 1774.31 316.982 1775.23 316.938C1784.99 316.469 1794.2 313.356 1803 308.152V308.008C1810.98 303.249 1818.63 296.77 1826.06 288.984C1841.77 272.508 1857.67 248.936 1874.83 219.453L1874.64 219.342C1882.85 206.137 1890.57 194.733 1897.86 184.985C1905.09 195.516 1912.67 207.684 1920.71 221.502L1920.79 221.637L1920.87 221.77C1941.2 254.504 1959.58 278.193 1977.16 293.323C1978.36 294.354 1979.56 295.349 1980.76 296.307C1987.71 301.858 1997 296.398 1997 287.502C1997 283.724 1995.18 280.201 1992.29 277.774C1991.92 277.468 1991.55 277.157 1991.19 276.84C1987.46 273.636 1983.62 269.914 1979.65 265.644V142.871C1986.99 146.747 1997 142.203 1997 133.9V133.344C1997 130.009 1995.34 126.863 1992.45 125.197C1984.19 120.434 1975.66 117.294 1966.74 116.256C1954.47 114.829 1942.55 117.488 1930.79 123.803H1930.02V124.223C1924.12 127.471 1918.26 131.636 1912.42 136.665C1907.88 140.566 1903.29 145.036 1898.63 150.083C1895.93 146.857 1893.24 143.833 1890.55 141.016C1874.87 124.574 1858.19 113.962 1839.48 113.062C1820.72 112.159 1802.79 121.158 1784.93 137.255C1767.06 153.363 1748.03 177.666 1726.77 210.048L1726.94 210.16C1718.8 221.66 1711.15 232.077 1703.86 241.345C1696.51 231.639 1688.54 220.23 1680.31 207.682C1662.2 182.053 1645.59 160.485 1629.53 144.832C1613.55 129.267 1596.95 118.375 1578.74 116.256C1576.56 116.003 1574.39 115.878 1572.23 115.88C1569.81 115.872 1567.4 116.023 1565 116.33V116.362C1557.51 117.354 1550.12 119.869 1542.79 123.803H1542.02V124.223C1536.12 127.471 1530.26 131.637 1524.42 136.665C1519.88 140.566 1515.29 145.036 1510.63 150.084C1507.93 146.858 1505.24 143.833 1502.55 141.016C1486.87 124.574 1470.19 113.962 1451.48 113.062C1432.72 112.16 1414.79 121.158 1396.93 137.255C1379.06 153.363 1360.03 177.666 1338.77 210.048L1338.94 210.16C1330.76 221.725 1323.06 232.195 1315.73 241.501C1308.35 231.758 1300.35 220.298 1292.06 207.682C1286.56 199.889 1281.19 192.472 1275.93 185.482C1274.76 188.124 1273.44 190.712 1271.97 193.24C1270.54 195.986 1268.93 198.666 1267.14 201.27C1266.12 202.762 1265.06 204.209 1263.96 205.612C1266.05 208.46 1268.17 211.389 1270.32 214.398V285.919C1264.11 289.512 1258.31 291.54 1252.77 292.184C1249.41 292.575 1245.92 292.48 1242.26 291.775V234.013C1242.26 230.082 1237.92 227.624 1234.4 229.374C1232.64 230.246 1231.47 232.025 1231.47 233.985V288.089C1226.35 285.6 1220.87 281.936 1214.94 276.84C1211.22 273.636 1207.38 269.914 1203.41 265.644L1192.62 253.093C1189.62 249.341 1186.54 245.296 1183.38 240.946C1183.32 240.947 1183.25 240.949 1183.19 240.951V275.504ZM1785.9 292.452L1785.64 225.815V167.508C1790.46 162.132 1795.09 157.441 1799.57 153.409C1800.73 152.362 1801.87 151.366 1803 150.418V150.216C1806.66 147.152 1810.14 144.604 1813.47 142.519V241.015L1813.72 270.472C1812.64 271.68 1811.56 272.846 1810.49 273.968C1801.5 283.393 1793.41 289.302 1785.9 292.452ZM1552.8 143.009C1559.88 139.19 1566.28 137.59 1572.26 137.576C1573.53 137.582 1574.78 137.66 1576.02 137.804C1577.53 137.98 1579.07 138.26 1580.62 138.646V252.791C1572 241.995 1562.77 228.789 1552.8 212.904V143.009ZM1926.44 153.148C1921.82 157.122 1917.02 161.891 1912.02 167.516C1917.91 175.8 1923.89 184.964 1930.02 194.948V150.198C1928.84 151.123 1927.65 152.106 1926.44 153.148ZM1940.8 143.009V212.904C1950.86 228.937 1960.17 242.242 1968.87 253.093V138.646C1967.31 138.26 1965.78 137.98 1964.26 137.804C1957.16 136.978 1949.48 138.323 1940.8 143.009ZM1863.36 196.824C1870.62 185.656 1877.64 175.687 1884.47 166.894C1881.25 162.913 1878.1 159.292 1874.99 156.032C1870.85 151.69 1866.89 148.094 1863.1 145.17V175.903L1863.36 196.824ZM1852.32 201.944V138.41C1847.47 136.104 1842.88 134.942 1838.45 134.729C1834.06 134.518 1829.36 135.221 1824.25 137.103V199.767L1824.51 257.321C1833.31 245.728 1842.58 231.529 1852.57 214.697V201.944H1852.32ZM1774.61 267.069V180.588C1766.04 191.335 1756.89 204.066 1747.05 218.907V286.071C1756.73 292.6 1765.08 295.27 1772.53 295.307C1773.01 295.306 1773.49 295.294 1773.96 295.271C1774.26 295.256 1774.57 295.237 1774.87 295.214L1774.61 267.069ZM1736.02 277.438V234.91C1729.82 243.429 1723.78 251.407 1717.86 258.762C1723.87 265.726 1729.6 271.653 1735.08 276.591C1735.39 276.877 1735.71 277.159 1736.02 277.438ZM1689.54 258.524C1685.96 262.538 1682.46 266.226 1679.02 269.579C1675.68 272.833 1672.46 275.71 1669.35 278.229V230.549C1676.3 240.782 1683.02 250.109 1689.54 258.524ZM1619.47 165.679V287.971C1614.42 285.485 1609.02 281.856 1603.19 276.84C1599.46 273.636 1595.62 269.914 1591.65 265.644V142.999C1598.61 146.716 1606.09 152.43 1614.27 160.409C1615.99 162.083 1617.72 163.84 1619.47 165.679ZM1640.77 292.184C1639.5 292.331 1638.22 292.41 1636.91 292.412C1634.83 292.401 1632.7 292.198 1630.5 291.775V178.052C1639.21 188.397 1648.41 200.555 1658.32 214.398V285.919C1652.11 289.512 1646.31 291.54 1640.77 292.184ZM1524.02 167.516C1529.02 161.892 1533.82 157.122 1538.44 153.148C1539.65 152.106 1540.84 151.123 1542.02 150.199V194.949C1535.89 184.964 1529.91 175.801 1524.02 167.516ZM1496.47 166.894C1489.64 175.687 1482.62 185.656 1475.36 196.824V175.903H1475.1V145.17C1478.89 148.094 1482.85 151.69 1486.99 156.032C1490.1 159.293 1493.25 162.913 1496.47 166.894ZM1464.32 138.41V201.944H1464.57V214.698C1454.58 231.529 1445.31 245.729 1436.51 257.321V199.767H1436.25V137.103C1441.36 135.221 1446.06 134.518 1450.45 134.729C1454.88 134.942 1459.47 136.104 1464.32 138.41ZM1425.47 142.519V241.016H1425.72V270.473C1424.64 271.681 1423.56 272.846 1422.49 273.968C1413.41 283.494 1405.23 289.429 1397.66 292.553V225.815H1397.4V167.508C1402.22 162.132 1406.85 157.441 1411.33 153.409C1416.35 148.88 1421.05 145.291 1425.47 142.519ZM1386.61 180.286V267.069H1386.87V295.214C1386.57 295.237 1386.26 295.256 1385.96 295.271C1378.09 295.65 1369.22 293.092 1358.81 286.071V218.908C1368.74 203.926 1377.97 191.096 1386.61 180.286ZM1348.02 234.578C1341.73 243.222 1335.61 251.311 1329.62 258.762C1335.63 265.726 1341.35 271.653 1346.83 276.591C1347.23 276.95 1347.63 277.304 1348.02 277.651V234.578ZM1291.02 269.579C1294.46 266.227 1297.96 262.539 1301.54 258.525C1294.95 250.012 1288.15 240.567 1281.11 230.193V278.424C1284.3 275.859 1287.6 272.918 1291.02 269.579Z" fill="white"/>
</svg>
